<svg width="137" height="40" viewBox="0 0 137 40" fill="none" xmlns="http://www.w3.org/2000/svg">
<path fill-rule="evenodd" clip-rule="evenodd" d="M20.575 39.3878H0.666992L8.24707 0.682406H19.175L13.0669 31.9583H21.9551L20.575 39.3878ZM42.575 39.3878L42.4829 34.8341H34.675L32.7471 39.3878H22.323L38.323 7.59262H49.895L53.571 39.3878H42.595H42.575ZM42.2549 19.3359C42.2549 18.1775 42.2991 16.9794 42.3911 16.0207H42.2991C41.927 17.4254 41.4509 18.8007 40.875 20.135L37.2029 28.8026H42.4031L42.2549 19.3359ZM77.9351 15.5014C76.5115 14.7336 74.9125 14.3481 73.2949 14.3829C72.9099 14.2994 72.5118 14.296 72.1255 14.3731C71.7391 14.4503 71.3728 14.6065 71.0496 14.8315C70.7263 15.0564 70.4531 15.3456 70.2468 15.6809C70.0406 16.0161 69.9059 16.3898 69.8511 16.7794C69.8511 19.8151 78.439 20.0551 78.439 27.5246C78.3969 29.2748 77.9954 30.9975 77.259 32.5863C76.5227 34.1751 75.4673 35.5959 74.1584 36.7606C72.8496 37.9253 71.3149 38.8095 69.6499 39.3575C67.9849 39.9056 66.2249 40.1062 64.479 39.947C61.1495 40.075 57.839 39.3894 54.835 37.9499L58.739 30.6403C60.3491 31.5526 62.1678 32.0341 64.019 32.0382C66.271 32.0382 67.219 30.9996 67.219 29.9611C67.219 26.9253 59.043 26.3263 59.043 19.0965C59.0939 17.3845 59.4968 15.7012 60.2266 14.1513C60.9564 12.6013 61.9976 11.2179 63.2854 10.0867C64.5732 8.95542 66.0799 8.1003 67.7124 7.57506C69.3449 7.04983 71.068 6.86559 72.7749 7.03334C75.7767 6.90665 78.7579 7.58228 81.4109 8.99055L77.9351 15.5014ZM102.455 14.7422H95.5229L94.511 19.8952H100.343L99.011 26.8853H93.179L92.123 32.2377H99.0669L97.687 39.3878H80.0869L86.2429 7.59262H103.843L102.455 14.7422ZM136.647 9.94917C136.647 3.59809 131.447 0.00318499 122.275 0.00318499C117.898 -0.0567531 113.552 0.729795 109.475 2.31975L102.275 39.3878H113.075L116.151 23.4502C117.671 24.6598 118.672 26.4023 118.951 28.3232L121.135 39.3878H132.875L129.523 28.0439C128.944 26.0719 127.993 24.2282 126.723 22.6115V22.4916C133.815 19.7355 136.667 15.3016 136.667 9.94917H136.647ZM124.679 15.3815C124.16 16.5042 123.333 17.4568 122.294 18.1286C121.254 18.8003 120.045 19.1639 118.807 19.1764C118.205 19.1854 117.604 19.1181 117.019 18.9765L119.419 6.51405C120.112 6.32804 120.826 6.23425 121.543 6.23466C122.115 6.13196 122.703 6.1653 123.26 6.33267C123.816 6.50004 124.325 6.7966 124.745 7.19766C125.165 7.59873 125.484 8.09286 125.676 8.64046C125.868 9.18806 125.928 9.77338 125.851 10.3485C125.834 12.0894 125.441 13.8061 124.699 15.3815H124.679Z" fill="#F22200"/>
</svg>
