<svg width="101" height="42" viewBox="0 0 101 42" fill="none" xmlns="http://www.w3.org/2000/svg">
<path d="M63.1249 36.9206V34.8025C64.2818 34.5643 65.1409 34.3091 65.7024 34.0369C66.2808 33.7476 66.57 33.4839 66.57 33.2457V7.62382C65.277 7.77694 64.1286 7.94707 63.1249 8.13422L62.7676 5.53119C63.7203 5.31002 64.7836 5.10586 65.9576 4.91871C67.1485 4.73157 68.3734 4.56994 69.6324 4.43384C70.9084 4.29773 72.1929 4.19565 73.4859 4.1276C74.7789 4.04253 76.0039 4 77.1608 4C79.1853 4 81.0313 4.19565 82.6986 4.58696C84.3659 4.97826 85.795 5.55671 86.9859 6.32231C88.1768 7.0879 89.0956 8.03214 89.7421 9.15501C90.4056 10.2779 90.7373 11.5709 90.7373 13.034C90.7373 14.8034 90.3886 16.3601 89.691 17.7042C88.9935 19.0482 88.1003 20.1711 87.0114 21.0728C85.9396 21.9745 84.7572 22.655 83.4642 23.1144C82.1882 23.5567 80.9632 23.7779 79.7893 23.7779C79.0067 23.7779 78.2241 23.7183 77.4415 23.5992C76.6759 23.4631 76.0039 23.2675 75.4254 23.0123L74.5833 20.0775C75.2808 20.4008 75.8763 20.6134 76.3697 20.7155C76.863 20.8006 77.4075 20.8431 78.0029 20.8431C78.7175 20.8431 79.4065 20.7155 80.07 20.4603C80.7336 20.2051 81.312 19.8053 81.8054 19.2609C82.3158 18.7164 82.7156 18.0189 83.0048 17.1682C83.3111 16.3176 83.4642 15.2883 83.4642 14.0803C83.4642 12.9405 83.277 11.9282 82.9027 11.0435C82.5455 10.1418 82.0266 9.38469 81.346 8.77221C80.6825 8.15974 79.8744 7.70038 78.9216 7.39414C77.9689 7.07089 76.8971 6.90926 75.7061 6.90926C75.3999 6.90926 75.0767 6.91777 74.7364 6.93478C74.3961 6.93478 74.0559 6.94329 73.7156 6.9603V33.2457C73.7156 33.3478 73.7666 33.4584 73.8687 33.5775C73.9708 33.6966 74.175 33.8242 74.4812 33.9603C74.7874 34.0964 75.2128 34.2325 75.7572 34.3686C76.3186 34.5047 77.0417 34.6493 77.9264 34.8025V36.9206H63.1249Z" fill="#FFB800"/>
<path d="M46.0264 36.9206V34.8025C47.1833 34.5643 48.0424 34.3091 48.6039 34.0369C49.1823 33.7477 49.4715 33.484 49.4715 33.2458V8.466C49.4715 8.26184 49.1993 8.00665 48.6549 7.70041C48.1275 7.39417 47.2513 7.12196 46.0264 6.88377V4.76562H60.0623V6.88377C58.9054 7.12196 58.0377 7.38566 57.4593 7.67489C56.8978 7.96411 56.6171 8.22782 56.6171 8.466V33.2458C56.6171 33.4499 56.8808 33.7051 57.4082 34.0114C57.9526 34.3006 58.8373 34.5643 60.0623 34.8025V36.9206H46.0264Z" fill="#FFB800"/>
<path d="M43.6787 6.88377C42.5218 7.10494 41.6116 7.32612 40.9481 7.54729C40.3016 7.75145 39.8933 8.09171 39.7231 8.56808L30.2042 34.6494C30.0681 35.0237 29.8044 35.3724 29.4131 35.6957C29.0218 36.0189 28.5624 36.3082 28.035 36.5634C27.5246 36.8186 26.9802 37.0397 26.4018 37.2269C25.8403 37.414 25.3214 37.5671 24.8451 37.6862L13.1059 8.56808C12.9188 8.12574 12.5785 7.76846 12.0851 7.49625C11.5917 7.22404 10.8091 7.01988 9.7373 6.88377V4.76562H23.3904V6.88377C22.7099 6.93481 22.1485 7.00287 21.7061 7.08793C21.2808 7.173 20.949 7.28358 20.7108 7.41969C20.4897 7.53878 20.3536 7.6919 20.3025 7.87905C20.2515 8.06619 20.277 8.27886 20.3791 8.51704L28.4178 28.9329L35.6655 8.56808C35.7505 8.31288 35.7676 8.10022 35.7165 7.93009C35.6655 7.75995 35.5209 7.61534 35.2827 7.49625C35.0445 7.36014 34.7042 7.24956 34.2619 7.16449C33.8195 7.06241 33.2496 6.96884 32.552 6.88377V4.76562H43.6787V6.88377Z" fill="#FFB800"/>
</svg>
